<svg xmlns="http://www.w3.org/2000/svg" width="46" height="46" viewBox="0 0 46 46">
  <g id="Clientes" transform="translate(-16 -260)">
    <rect id="Retângulo_10" data-name="Retângulo 10" width="46" height="46" rx="5" transform="translate(16 260)" fill="#132c48"/>
    <g id="people_black_24dp" transform="translate(27 271)">
      <path id="Caminho_1012" data-name="Caminho 1012" d="M0,0H24V24H0Z" fill="none"/>
      <path id="Caminho_1013" data-name="Caminho 1013" d="M16,11a3,3,0,1,0-3-3A2.987,2.987,0,0,0,16,11ZM8,11A3,3,0,1,0,5,8,2.987,2.987,0,0,0,8,11Zm0,2c-2.33,0-7,1.17-7,3.5V19H15V16.5C15,14.17,10.33,13,8,13Zm8,0c-.29,0-.62.02-.97.05A4.22,4.22,0,0,1,17,16.5V19h6V16.5C23,14.17,18.33,13,16,13Z" fill="#fff"/>
    </g>
  </g>
</svg>
