<svg id="Logo_VendaSimples" data-name="Logo VendaSimples" xmlns="http://www.w3.org/2000/svg" width="471.051" height="87.465" viewBox="0 0 471.051 87.465">
  <g id="Grupo_143" data-name="Grupo 143" transform="translate(62.861 27.287)">
    <g id="Grupo_142" data-name="Grupo 142" transform="translate(0 0)">
      <path id="Caminho_94" data-name="Caminho 94" d="M160.924,95.257l-11.857,42.13H134.744l-11.857-42.13h13.121l5.889,28.621,5.848-28.621Z" transform="translate(-122.887 -89.242)" fill="#fff"/>
      <path id="Caminho_95" data-name="Caminho 95" d="M216.588,122.154a34.058,34.058,0,0,1-.181,3.491H196.122c.789,4.686,3.557,7.042,8.608,7.042a29.89,29.89,0,0,0,10.893-2.29v9.088a47.117,47.117,0,0,1-14.023,2.29c-11.807,0-18.6-7.012-18.6-18.718s6.855-18.718,17.815-18.718c10.335,0,15.769,6.339,15.769,17.816Zm-12.4-4.935c0-2.493-1.467-4.394-3.435-4.394-2.3,0-4.121,2.625-4.688,6.8h7.757a9.4,9.4,0,0,0,.365-2.409Z" transform="translate(-145.546 -92.663)" fill="#fff"/>
      <path id="Caminho_96" data-name="Caminho 96" d="M277.755,117.637v23.172H265.116V117.637c0-3.218-.8-4.814-2.618-4.814-2.988,0-5.567,4.314-5.567,9.539v18.447H244.291V122.362a159.461,159.461,0,0,0-.957-17.058h11.8a23.466,23.466,0,0,1,.954,4.116,12.655,12.655,0,0,1,10.349-5.078C273.329,104.335,277.755,109.08,277.755,117.637Z" transform="translate(-168.285 -92.663)" fill="#fff"/>
      <path id="Caminho_97" data-name="Caminho 97" d="M327.58,133.745a25.109,25.109,0,0,1-.942-4.539,10.024,10.024,0,0,1-9.2,5.508c-8.262,0-12.183-7.934-12.183-19.161,0-12.5,5.3-18.274,13.853-18.274a11.948,11.948,0,0,1,6.674,2V85.6h12.639v31.116c0,4.456.523,13.324.956,17.033Zm-1.793-17.092V106.642a7.133,7.133,0,0,0-3.076-.883c-3.04,0-4.567,3.622-4.567,10.834,0,6.486,1.235,9.629,3.789,9.629s3.855-3.175,3.855-9.51Z" transform="translate(-191.629 -85.6)" fill="#fff"/>
      <path id="Caminho_98" data-name="Caminho 98" d="M364.519,132.092c0-7.9,8.261-13.671,19.62-13.671v-.362c0-2.435-.862-3.732-3.673-3.732-3.22,0-8.553,1.7-12.878,4.453V108.429a33.411,33.411,0,0,1,15.558-4.093c9.128,0,13.632,4.534,13.632,13.723v5.717c0,4.456.471,13.324.9,17.033H386.065a16.372,16.372,0,0,1-.722-4.815h-.108a13.038,13.038,0,0,1-10.668,5.778C368.733,141.772,364.519,137.691,364.519,132.092Zm19.62-8.315c-3.59,0-6.741,2.862-6.741,6.139,0,1.96,1.138,3.37,2.708,3.37C382.618,133.286,384.139,129.676,384.139,123.777Z" transform="translate(-213.963 -92.663)" fill="#fff"/>
      <path id="Caminho_99" data-name="Caminho 99" d="M437.951,137.8a26.18,26.18,0,0,1-13.06-3.435V131.48a27.275,27.275,0,0,0,13.658,3.912c6.482,0,10.418-2.882,10.418-7.918,0-4.67-3.31-7.8-12.207-11.92-9.273-4.289-11.987-7.238-11.987-11.579,0-5.967,5.649-10.172,13-10.172a26.122,26.122,0,0,1,12.643,3.491v2.768A27.851,27.851,0,0,0,437.3,96.211c-5.4,0-9.032,2.7-9.032,6.768,0,3.715,3.01,6.313,10.866,10,10.291,4.824,13.329,8.267,13.329,13.509,0,6.86-5.976,11.316-14.505,11.316Z" transform="translate(-236.673 -88.695)" fill="#fff"/>
      <path id="Caminho_100" data-name="Caminho 100" d="M483.447,89.213a1.679,1.679,0,0,1,1.746-1.685,1.649,1.649,0,0,1,1.685,1.685,1.678,1.678,0,0,1-1.685,1.745,1.708,1.708,0,0,1-1.746-1.745Zm.242,10.231h2.949v35.032h-2.949Z" transform="translate(-258.79 -86.33)" fill="#fff"/>
      <path id="Caminho_101" data-name="Caminho 101" d="M552.7,116.548V141.1h-2.949V116.548c0-6.2-2.336-9.388-6.869-9.388-7.037,0-11.6,7.67-11.6,19.5V141.1h-2.953V116.548c0-6.2-2.335-9.388-6.869-9.388-7.037,0-11.6,7.67-11.6,19.5V141.1H506.9V126.05c0-8.719-.229-16.393-.6-19.981h2.708c.278,2.412.5,5.724.645,9.479,2.126-6.725,6.459-10.442,12.537-10.442,5.7,0,8.678,3.271,9.044,9.96,2.175-6.419,6.448-9.96,12.378-9.96C549.72,105.109,552.7,108.861,552.7,116.548Z" transform="translate(-267.403 -92.956)" fill="#fff"/>
      <path id="Caminho_102" data-name="Caminho 102" d="M626.259,124.005c0,11.606-4.366,18.058-12.222,18.058-3.465,0-7.43-1.259-12.032-3.812v14.883h-2.949V126.05c0-8.719-.229-16.393-.6-19.981h2.709c.279,2.436.5,5.792.649,9.588,2.11-6.7,6.359-10.552,12.11-10.552C621.68,105.11,626.259,112.123,626.259,124.005Zm-3.25-.061c0-10.628-3.307-16.789-9.023-16.789-6.734,0-11.981,8.538-11.981,19.5V136.3a26.386,26.386,0,0,0,11.737,3.714c6.042,0,9.265-5.582,9.265-16.071Z" transform="translate(-302.138 -92.956)" fill="#fff"/>
      <path id="Caminho_103" data-name="Caminho 103" d="M661.547,113.162a187.412,187.412,0,0,0,.842,20.584h-2.949c-.518-4.516-.842-12.42-.842-20.584V85.6h2.949Z" transform="translate(-324.808 -85.6)" fill="#fff"/>
      <path id="Caminho_104" data-name="Caminho 104" d="M707.289,123.587H682.611c0,10.557,3.944,16.431,11.2,16.431a29.4,29.4,0,0,0,12.822-3.491v2.587a32.461,32.461,0,0,1-12.879,2.949c-9.151,0-14.385-6.838-14.385-18.537,0-11.819,5.359-18.417,14.685-18.417,8.566,0,13.422,5.625,13.422,15.287a29.347,29.347,0,0,1-.182,3.191Zm-3.13-4.755c0-7.327-3.858-11.677-10.231-11.677-6.906,0-10.855,5.16-11.278,14.685h21.328a26.662,26.662,0,0,0,.181-3Z" transform="translate(-332.635 -92.955)" fill="#fff"/>
      <path id="Caminho_105" data-name="Caminho 105" d="M736.561,139.174v-2.4a29.786,29.786,0,0,0,12.7,3.25c5.792,0,9.87-2.933,9.87-7.162,0-3.572-3.033-6.167-10.95-9.336-8.874-3.549-11.438-6.124-11.438-9.984,0-5.119,5.066-8.426,12.1-8.426A27.363,27.363,0,0,1,760.876,108v2.4a30.008,30.008,0,0,0-12.338-3.25c-5.032,0-8.547,2.572-8.547,6.079,0,3.091,2.848,5.235,9.914,8.014,9.692,3.817,12.479,6.776,12.479,11.423,0,5.895-5.336,9.388-13.361,9.388A27.269,27.269,0,0,1,736.561,139.174Z" transform="translate(-354.194 -92.955)" fill="#fff"/>
    </g>
  </g>
  <g id="Grupo_146" data-name="Grupo 146">
    <g id="Grupo_144" data-name="Grupo 144" transform="translate(0 33.625)">
      <path id="Retângulo_58" data-name="Retângulo 58" d="M1.611,0H8.257a1.6,1.6,0,0,1,1.6,1.6V8.257a1.6,1.6,0,0,1-1.6,1.6H1.611A1.611,1.611,0,0,1,0,8.253V1.613A1.611,1.611,0,0,1,1.611,0Z" transform="translate(44.46 11.089)" fill="#29a5de"/>
      <path id="Retângulo_59" data-name="Retângulo 59" d="M1.611,0H8.257a1.6,1.6,0,0,1,1.6,1.6V8.257a1.6,1.6,0,0,1-1.6,1.6H1.611A1.611,1.611,0,0,1,0,8.253V1.613A1.611,1.611,0,0,1,1.611,0Z" transform="translate(33.372 11.089)" fill="#29a5de"/>
      <path id="Retângulo_61" data-name="Retângulo 61" d="M1.611,0H8.257a1.6,1.6,0,0,1,1.6,1.6V8.257a1.6,1.6,0,0,1-1.6,1.6H1.611A1.611,1.611,0,0,1,0,8.253V1.613A1.611,1.611,0,0,1,1.611,0Z" transform="translate(33.372 22.178)" fill="#29a5de"/>
      <path id="Retângulo_63" data-name="Retângulo 63" d="M1.611,0H8.257a1.6,1.6,0,0,1,1.6,1.6V8.257a1.6,1.6,0,0,1-1.6,1.6H1.611A1.611,1.611,0,0,1,0,8.253V1.613A1.611,1.611,0,0,1,1.611,0Z" transform="translate(22.219 22.178)" fill="#29a5de"/>
      <path id="Retângulo_64" data-name="Retângulo 64" d="M1.611,0H8.257a1.6,1.6,0,0,1,1.6,1.6V8.257a1.6,1.6,0,0,1-1.6,1.6H1.611A1.611,1.611,0,0,1,0,8.253V1.613A1.611,1.611,0,0,1,1.611,0Z" transform="translate(22.219 33.267)" fill="#29a5de"/>
      <path id="Caminho_106" data-name="Caminho 106" d="M40.672,105.062a.875.875,0,0,1-.875-.877V96.073a.871.871,0,0,1,.875-.875h8.11a.877.877,0,0,1,.879.875v8.113a.879.879,0,0,1-.879.877Z" transform="translate(-28.708 -84.109)" fill="#29a5de"/>
      <path id="Caminho_107" data-name="Caminho 107" d="M40.672,122.858a.874.874,0,0,1-.875-.877v-8.112a.871.871,0,0,1,.875-.875h8.11a.877.877,0,0,1,.879.875v8.112a.879.879,0,0,1-.879.877Z" transform="translate(-28.708 -90.817)" fill="#29a5de"/>
      <path id="Retângulo_66" data-name="Retângulo 66" d="M1.6,0H8.257a1.6,1.6,0,0,1,1.6,1.6V8.257a1.6,1.6,0,0,1-1.6,1.6H1.611A1.611,1.611,0,0,1,0,8.253V1.6A1.6,1.6,0,0,1,1.6,0Z" transform="translate(0 11.089)" fill="#29a5de"/>
      <path id="Retângulo_69" data-name="Retângulo 69" d="M1.611,0H8.257a1.6,1.6,0,0,1,1.6,1.6V8.257a1.6,1.6,0,0,1-1.6,1.6H1.611A1.611,1.611,0,0,1,0,8.253V1.613A1.611,1.611,0,0,1,1.611,0Z" transform="translate(44.46 0)" fill="#29a5de"/>
      <path id="Caminho_108" data-name="Caminho 108" d="M22.875,87.265A.875.875,0,0,1,22,86.388V78.276a.872.872,0,0,1,.875-.875h8.11a.877.877,0,0,1,.878.875v8.112a.878.878,0,0,1-.878.877Z" transform="translate(-22 -77.401)" fill="#29a5de"/>
    </g>
    <g id="Grupo_145" data-name="Grupo 145" transform="translate(0.106)">
      <path id="Retângulo_70" data-name="Retângulo 70" d="M1.611,0H8.257a1.6,1.6,0,0,1,1.6,1.6V8.257a1.6,1.6,0,0,1-1.6,1.6H1.611A1.611,1.611,0,0,1,0,8.253V1.613A1.611,1.611,0,0,1,1.611,0Z" transform="translate(11.089 33.266)" fill="#fff"/>
      <path id="Retângulo_71" data-name="Retângulo 71" d="M1.611,0H8.257a1.6,1.6,0,0,1,1.6,1.6V8.257a1.6,1.6,0,0,1-1.6,1.6H1.611A1.611,1.611,0,0,1,0,8.253V1.613A1.611,1.611,0,0,1,1.611,0Z" transform="translate(22.177 44.355)" fill="#fff"/>
      <path id="Retângulo_72" data-name="Retângulo 72" d="M1.611,0H8.257a1.6,1.6,0,0,1,1.6,1.6V8.257a1.6,1.6,0,0,1-1.6,1.6H1.611A1.611,1.611,0,0,1,0,8.253V1.613A1.611,1.611,0,0,1,1.611,0Z" transform="translate(33.266 33.266)" fill="#fff"/>
      <path id="Caminho_109" data-name="Caminho 109" d="M23.045,87.265a.873.873,0,0,1-.875-.877V78.276a.872.872,0,0,1,.875-.875h8.11a.877.877,0,0,1,.879.875v8.112a.879.879,0,0,1-.879.877Z" transform="translate(-22.17 -55.224)" fill="#fff"/>
      <path id="Retângulo_73" data-name="Retângulo 73" d="M1.611,0H8.257a1.6,1.6,0,0,1,1.6,1.6V8.257a1.6,1.6,0,0,1-1.6,1.6H1.611A1.611,1.611,0,0,1,0,8.253V1.613A1.611,1.611,0,0,1,1.611,0Z" transform="translate(44.355 22.178)" fill="#fff"/>
      <path id="Retângulo_74" data-name="Retângulo 74" d="M1.611,0H8.257a1.6,1.6,0,0,1,1.6,1.6V8.257a1.6,1.6,0,0,1-1.6,1.6H1.611A1.611,1.611,0,0,1,0,8.253V1.613A1.611,1.611,0,0,1,1.611,0Z" transform="translate(55.444 11.089)" fill="#fff"/>
      <path id="Caminho_110" data-name="Caminho 110" d="M129.824,51.672a.875.875,0,0,1-.875-.877V42.683a.872.872,0,0,1,.875-.875h8.114a.877.877,0,0,1,.879.875V50.8a.879.879,0,0,1-.879.877Z" transform="translate(-62.418 -41.808)" fill="#fff"/>
    </g>
  </g>
</svg>
