<svg xmlns="http://www.w3.org/2000/svg" width="342" height="90" viewBox="0 0 342 90">
  <g id="Grupo_401" data-name="Grupo 401" transform="translate(-17 -192)">
    <rect id="Retângulo_7" data-name="Retângulo 7" width="342" height="90" transform="translate(17 192)" fill="rgba(112,112,112,0)"/>
    <g id="logo" transform="translate(36 204)">
      <g id="Grupo_399" data-name="Grupo 399" transform="translate(91.348 0.327)">
        <path id="Caminho_1003" data-name="Caminho 1003" d="M79.46,5.628h4.971L67.81,35.66H62.891L46.32,5.628h4.971l14.084,25.89Z" transform="translate(-46.32 4.209)" fill="#132c48"/>
        <path id="Caminho_1004" data-name="Caminho 1004" d="M90.981,5.628A6.279,6.279,0,0,1,97.3,11.894V22.767H70.943V29.4a2.022,2.022,0,0,0,2.018,2.016H97.3v4.248H72.959A6.279,6.279,0,0,1,66.693,29.4v-17.5a6.033,6.033,0,0,1,1.839-4.427,6.032,6.032,0,0,1,4.427-1.839ZM70.943,18.521H93V11.894a2.033,2.033,0,0,0-2.018-2.02H72.959a2.033,2.033,0,0,0-2.018,2.02v6.627Z" transform="translate(-25.792 4.209)" fill="#132c48"/>
        <path id="Caminho_1005" data-name="Caminho 1005" d="M108.953,5.628a6.039,6.039,0,0,1,4.427,1.839,6.042,6.042,0,0,1,1.839,4.427V35.662h-4.244V11.894a2.04,2.04,0,0,0-2.02-2.02H90.937a2.043,2.043,0,0,0-1.452.6,1.9,1.9,0,0,0-.62,1.423V35.662H84.619V5.628Z" transform="translate(-7.729 4.209)" fill="#132c48"/>
        <path id="Caminho_1006" data-name="Caminho 1006" d="M128.124.728h4.246V40.6H108.086a6.09,6.09,0,0,1-4.479-1.839,6.029,6.029,0,0,1-1.837-4.425v-17.5a6.275,6.275,0,0,1,6.316-6.266h20.038ZM108.086,36.349h18.02a2.026,2.026,0,0,0,2.018-2.016v-17.5a2.036,2.036,0,0,0-2.018-2.02h-18.02a2.036,2.036,0,0,0-2.02,2.02v17.5a2.022,2.022,0,0,0,2.02,2.014Z" transform="translate(9.553 -0.728)" fill="#132c48"/>
        <path id="Caminho_1007" data-name="Caminho 1007" d="M144.005,5.628a6.279,6.279,0,0,1,6.316,6.266V35.662H125.985a6.279,6.279,0,0,1-6.266-6.264V18.521h26.3V11.894a2.036,2.036,0,0,0-2.018-2.02H119.719V5.628Zm2.018,25.784V22.765H123.965V29.4a2.026,2.026,0,0,0,2.018,2.016Z" transform="translate(27.639 4.209)" fill="#132c48"/>
        <path id="Caminho_1008" data-name="Caminho 1008" d="M167.6,11.894v.416h-4.3v-.416a2.033,2.033,0,0,0-2.016-2.02H143.268a2.036,2.036,0,0,0-2.02,2.02V16.5a2.036,2.036,0,0,0,2.02,2.02h18.018a6.279,6.279,0,0,1,6.316,6.268V29.4a6.031,6.031,0,0,1-1.839,4.425,6.092,6.092,0,0,1-4.477,1.839H143.268A6.279,6.279,0,0,1,137,29.4v-.418h4.246V29.4a2.026,2.026,0,0,0,2.02,2.016h18.018A2.022,2.022,0,0,0,163.3,29.4V24.789a2.036,2.036,0,0,0-2.016-2.024H143.266A6.272,6.272,0,0,1,137,16.5V11.894a6.048,6.048,0,0,1,1.839-4.427,6.04,6.04,0,0,1,4.429-1.839h18.018a6.1,6.1,0,0,1,4.477,1.839A6.036,6.036,0,0,1,167.6,11.894Z" transform="translate(45.05 4.209)" fill="#132c48"/>
      </g>
      <g id="Grupo_400" data-name="Grupo 400" transform="translate(18.698)">
        <path id="Caminho_1009" data-name="Caminho 1009" d="M33.938,10.485A6.327,6.327,0,0,1,40.252,16.8V34.446a6.33,6.33,0,0,1-6.314,6.318H9.4V.565h4.28v9.92Zm2.036,23.961V16.8a2.05,2.05,0,0,0-2.036-2.038H15.769a2.061,2.061,0,0,0-1.462.6,1.928,1.928,0,0,0-.626,1.439V34.446a1.916,1.916,0,0,0,.626,1.435,2.042,2.042,0,0,0,1.462.6H33.938a2.053,2.053,0,0,0,2.036-2.036Z" transform="translate(-9.401 -0.565)" fill="#132c48"/>
      </g>
      <path id="Caminho_1010" data-name="Caminho 1010" d="M87.6,5.628H66.081l8.928,8.844L49.444,41.578h-31.3a2.919,2.919,0,0,0-2.056.843L.94,57.425a2.861,2.861,0,0,0,0,4.074,2.922,2.922,0,0,0,4.112,0L19.344,47.341H50.7a2.917,2.917,0,0,0,2.124-.913L79.123,18.552l8.48,8.4Z" transform="translate(-0.087 3.656)" fill="#14dfff"/>
    </g>
  </g>
</svg>
