<svg id="Grupo_1" data-name="Grupo 1" xmlns="http://www.w3.org/2000/svg" width="465.74" height="129.2" viewBox="0 0 465.74 129.2">
  <path id="Caminho_1" data-name="Caminho 1" d="M235.9,741.34a7.451,7.451,0,0,1-2.69-1.37l1-2.27a8,8,0,0,0,2.38,1.24,8.373,8.373,0,0,0,2.82.49,4.79,4.79,0,0,0,2.61-.57,1.68,1.68,0,0,0,.87-1.48,1.43,1.43,0,0,0-.48-1.11,3.559,3.559,0,0,0-1.23-.69c-.49-.16-1.17-.35-2-.56a23.481,23.481,0,0,1-2.91-.85,4.81,4.81,0,0,1-1.91-1.34,3.6,3.6,0,0,1-.8-2.46,4.21,4.21,0,0,1,.71-2.37,4.79,4.79,0,0,1,2.13-1.7,8.829,8.829,0,0,1,3.5-.63,11.739,11.739,0,0,1,2.83.36,7.739,7.739,0,0,1,2.4,1l-.92,2.27a8.89,8.89,0,0,0-2.16-.92,8,8,0,0,0-2.18-.32,4.539,4.539,0,0,0-2.57.59,1.8,1.8,0,0,0-.84,1.55,1.41,1.41,0,0,0,.48,1.1,3.441,3.441,0,0,0,1.23.67c.49.17,1.17.35,2,.56a20.2,20.2,0,0,1,2.88.85,4.93,4.93,0,0,1,1.92,1.33,3.54,3.54,0,0,1,.79,2.43,4.16,4.16,0,0,1-.7,2.36,4.89,4.89,0,0,1-2.15,1.68,8.719,8.719,0,0,1-3.5.63,12.129,12.129,0,0,1-3.51-.47Z" transform="translate(-65.68 -631.27)" fill="#fff"/>
  <path id="Caminho_2" data-name="Caminho 2" d="M271.12,725.9H274v15.73h-2.92Z" transform="translate(-65.68 -631.27)" fill="#fff"/>
  <path id="Caminho_3" data-name="Caminho 3" d="M302.09,741.34a7.4,7.4,0,0,1-2.68-1.37l1-2.27a7.8,7.8,0,0,0,2.37,1.24,8.459,8.459,0,0,0,2.82.49,4.83,4.83,0,0,0,2.62-.57,1.67,1.67,0,0,0,.86-1.48,1.43,1.43,0,0,0-.48-1.11,3.51,3.51,0,0,0-1.22-.69c-.5-.16-1.17-.35-2-.56a24.592,24.592,0,0,1-2.91-.85,4.891,4.891,0,0,1-1.91-1.34,3.6,3.6,0,0,1-.79-2.46,4.2,4.2,0,0,1,.7-2.37,4.88,4.88,0,0,1,2.14-1.7,8.781,8.781,0,0,1,3.49-.63,11.742,11.742,0,0,1,2.83.36,7.91,7.91,0,0,1,2.41,1l-.92,2.27a8.892,8.892,0,0,0-2.16-.92,8.1,8.1,0,0,0-2.18-.32,4.54,4.54,0,0,0-2.57.59,1.8,1.8,0,0,0-.84,1.55,1.41,1.41,0,0,0,.48,1.1,3.48,3.48,0,0,0,1.22.67c.5.17,1.17.35,2,.56a20.2,20.2,0,0,1,2.88.85,4.86,4.86,0,0,1,1.92,1.33,3.54,3.54,0,0,1,.8,2.43,4.17,4.17,0,0,1-.71,2.36,4.8,4.8,0,0,1-2.14,1.68,8.74,8.74,0,0,1-3.51.63A12.229,12.229,0,0,1,302.09,741.34Z" transform="translate(-65.68 -631.27)" fill="#fff"/>
  <path id="Caminho_4" data-name="Caminho 4" d="M340.28,728.37h-5.21V725.9h13.35v2.47H343.2v13.26h-2.92Z" transform="translate(-65.68 -631.27)" fill="#fff"/>
  <path id="Caminho_5" data-name="Caminho 5" d="M384.86,739.18v2.45h-11.8V725.9h11.49v2.45H376v4.09h7.59v2.4H376v4.34Z" transform="translate(-65.68 -631.27)" fill="#fff"/>
  <path id="Caminho_6" data-name="Caminho 6" d="M425,741.63V731.2l-5.16,8.63h-1.31l-5.17-8.49v10.29h-2.78V725.9H413l6.25,10.43,6.13-10.43h2.41v15.73Z" transform="translate(-65.68 -631.27)" fill="#fff"/>
  <path id="Caminho_7" data-name="Caminho 7" d="M464.68,738h-7.87l-1.55,3.64h-3l7.08-15.73h2.87l7.1,15.73h-3.05Zm-1-2.29-3-6.88-2.94,6.88Z" transform="translate(-65.68 -631.27)" fill="#fff"/>
  <path id="Caminho_8" data-name="Caminho 8" d="M495.11,741.34a7.451,7.451,0,0,1-2.69-1.37l1-2.27a7.8,7.8,0,0,0,2.37,1.24,8.373,8.373,0,0,0,2.82.49,4.79,4.79,0,0,0,2.61-.57,1.68,1.68,0,0,0,.87-1.48,1.43,1.43,0,0,0-.48-1.11,3.56,3.56,0,0,0-1.23-.69c-.49-.16-1.17-.35-2-.56a23.48,23.48,0,0,1-2.91-.85,4.81,4.81,0,0,1-1.91-1.34,3.6,3.6,0,0,1-.8-2.46,4.21,4.21,0,0,1,.71-2.37,4.79,4.79,0,0,1,2.13-1.7,8.871,8.871,0,0,1,3.5-.63,11.742,11.742,0,0,1,2.83.36,7.739,7.739,0,0,1,2.4,1l-.92,2.27a9,9,0,0,0-2.15-.92,8.121,8.121,0,0,0-2.19-.32,4.54,4.54,0,0,0-2.57.59,1.8,1.8,0,0,0-.84,1.55,1.41,1.41,0,0,0,.48,1.1,3.53,3.53,0,0,0,1.23.67c.49.17,1.17.35,2,.56a20.2,20.2,0,0,1,2.88.85,4.93,4.93,0,0,1,1.92,1.33,3.54,3.54,0,0,1,.8,2.43,4.17,4.17,0,0,1-.71,2.36,4.891,4.891,0,0,1-2.15,1.68,8.72,8.72,0,0,1-3.5.63,12.129,12.129,0,0,1-3.5-.47Z" transform="translate(-65.68 -631.27)" fill="#fff"/>
  <path id="Caminho_9" data-name="Caminho 9" d="M65.68,633.75H91.52l-14.08,90s-1.37,7.72,7.56,8.6L194.35,749v11.47H99.87s-31.82-2.07-31.82-34.81Z" transform="translate(-65.68 -631.27)" fill="#fff"/>
  <path id="Caminho_10" data-name="Caminho 10" d="M290.43,665c0-15.36-16.53-14.77-16.53-14.77H245.63L233,711.39h14.46l5.29-24.25h6.35c5.38,0,8.81,24.25,8.81,24.25h16.24C281.83,698.48,274.09,681,274.09,681,290.71,681,290.43,665,290.43,665Zm-24.56,9.48H255.62l3.72-13.79h7.72a6.33,6.33,0,0,1,6.74,6.07c0,6.1-7.93,7.76-7.93,7.76Z" transform="translate(-65.68 -631.27)" fill="#fff"/>
  <path id="Caminho_11" data-name="Caminho 11" d="M279.7,19H239.02L224.74,80.12h44.79L271.39,68H243.32l4.01-15.23h24.35l1.96-11.18H249.19l3.03-12.61,25.62.51Z" fill="#fff"/>
  <path id="Caminho_12" data-name="Caminho 12" d="M382.15,650.27H357.9l-12.52,61.51h32.17s31.4-2,31.4-35C409,676.79,409.54,650.27,382.15,650.27Zm10.37,25.82c0,23.19-16.62,23.19-16.62,23.19H362l8.13-38.45H378C393.69,660.83,392.52,676.09,392.52,676.09Z" transform="translate(-65.68 -631.27)" fill="#fff"/>
  <path id="Caminho_13" data-name="Caminho 13" d="M462.73,650.27H443.57l-36.5,61.51h16.28l8.23-13.1h23.33l1.76,12.71h16.89ZM437.3,686.69l14.48-24.51,2.09,24.51Z" transform="translate(-65.68 -631.27)" fill="#fff"/>
  <path id="Caminho_14" data-name="Caminho 14" d="M409.7,0l-5.48,5.48L411,21.12l4.04-4.04Z" fill="#fff"/>
  <path id="Caminho_15" data-name="Caminho 15" d="M526.62,662.17l4.8-10.69s-6.23-3.26-20.31-3.26c0,0-26.47.91-26.47,19.69,0,0-.88,9.55,14.21,16.14,0,0,10.3,3.29,10.3,9.29,0,0,1.43,8.07-13.95,8.07,0,0-10.82-.77-14.47-4.42l-4.18,12.51a49.17,49.17,0,0,0,19.56,4s31-.27,31-21.78c0,0,.39-12.13-14.21-17.34,0,0-11.21-3.13-11.21-8.87,0,0-.91-6.52,11.86-6.52A53.716,53.716,0,0,1,526.62,662.17Z" transform="translate(-65.68 -631.27)" fill="#fff"/>
  <path id="Caminho_16" data-name="Caminho 16" d="M74.08,92.44H66.52L84.25,4.63H92.6Z" fill="#fff"/>
  <path id="Caminho_17" data-name="Caminho 17" d="M61.04,92.44H53.48L71.21,4.63h8.35Z" fill="#fff"/>
  <path id="Caminho_18" data-name="Caminho 18" d="M48,92.44H40.44L58.17,4.63h8.35Z" fill="#fff"/>
  <path id="Caminho_19" data-name="Caminho 19" d="M214.15,678s16.24-6.84,16.24-21.33c0,0-.41-20.73-22.69-20.73H166.23l-18.77,87.82h53.19S228,721.17,228,697.5C228,697.5,228.43,682.26,214.15,678ZM195,710.51H167.5l7-24.14h23.09c11.44,0,12.33,11,12.33,11C209.94,709.78,195,710.51,195,710.51Zm4.76-39.79H176l6.06-22.21H202c9.89,0,10.66,10.08,10.66,10.08.02,11.41-12.89,12.13-12.89,12.13Z" transform="translate(-65.68 -631.27)" fill="#fff"/>
</svg>
