<svg xmlns="http://www.w3.org/2000/svg" xmlns:xlink="http://www.w3.org/1999/xlink" width="46" height="46" viewBox="0 0 46 46">
  <defs>
    <clipPath id="clip-path">
      <rect id="Ret창ngulo_43" data-name="Ret창ngulo 43" width="30" height="19.105" fill="#fff"/>
    </clipPath>
  </defs>
  <g id="Menu" transform="translate(-16 -24)">
    <rect id="Ret창ngulo_22" data-name="Ret창ngulo 22" width="46" height="46" rx="5" transform="translate(16 24)" fill="#132c48"/>
    <g id="Grupo_545" data-name="Grupo 545" transform="translate(24 37.448)">
      <g id="Grupo_545-2" data-name="Grupo 545" clip-path="url(#clip-path)">
        <path id="Caminho_1044" data-name="Caminho 1044" d="M0,209.961a1.486,1.486,0,0,1,1.162-1.024,2.317,2.317,0,0,1,.349-.023H28.475a1.381,1.381,0,0,1,1.516,1.441,1.36,1.36,0,0,1-1.263,1.3c-.127.007-.254,0-.381,0q-13.321,0-26.642.01A1.581,1.581,0,0,1,0,210.606Z" transform="translate(0 -192.564)" fill="#fff"/>
        <path id="Caminho_1045" data-name="Caminho 1045" d="M0,1.054A1.456,1.456,0,0,1,1.037.044,2.027,2.027,0,0,1,1.471,0Q15,0,28.523,0a1.357,1.357,0,0,1,1.469,1.361A1.375,1.375,0,0,1,28.5,2.745q-6.412,0-12.823,0c-4.635,0-9.271-.011-13.906.01A1.645,1.645,0,0,1,0,1.7Z" transform="translate(0 0)" fill="#fff"/>
        <path id="Caminho_1046" data-name="Caminho 1046" d="M0,105.595a.461.461,0,0,0,.046-.075,1.358,1.358,0,0,1,1.44-1c1.357,0,2.713,0,4.07,0q11.4,0,22.809,0a2.376,2.376,0,0,1,.72.083,1.349,1.349,0,0,1,.9,1.5,1.368,1.368,0,0,1-1.238,1.137c-.136.011-.273.011-.409.011q-13.337,0-26.674.009A1.538,1.538,0,0,1,0,106.181v-.586" transform="translate(0 -96.34)" fill="#fff"/>
      </g>
    </g>
  </g>
</svg>
