<svg xmlns="http://www.w3.org/2000/svg" width="46" height="46" viewBox="0 0 46 46">
  <g id="Pedidos" transform="translate(-16 -203)">
    <rect id="Ret창ngulo_9" data-name="Ret창ngulo 9" width="46" height="46" rx="5" transform="translate(16 203)" fill="#132c48"/>
    <g id="request_page_black_24dp" transform="translate(27 214)">
      <rect id="Ret창ngulo_20" data-name="Ret창ngulo 20" width="24" height="24" fill="none"/>
      <path id="Caminho_1011" data-name="Caminho 1011" d="M14,2H6A2.006,2.006,0,0,0,4,4V20a2.006,2.006,0,0,0,2,2H18a2.006,2.006,0,0,0,2-2V8Zm1,9H11v1h3a1,1,0,0,1,1,1v3a1,1,0,0,1-1,1H13v1H11V17H9V15h4V14H10a1,1,0,0,1-1-1V10a1,1,0,0,1,1-1h1V8h2V9h2Z" fill="#fff"/>
    </g>
  </g>
</svg>
