<svg xmlns="http://www.w3.org/2000/svg" xmlns:xlink="http://www.w3.org/1999/xlink" width="46" height="46" viewBox="0 0 46 46">
  <defs>
    <clipPath id="clip-path">
      <rect id="Ret창ngulo_42" data-name="Ret창ngulo 42" width="24.059" height="24" fill="#fff"/>
    </clipPath>
  </defs>
  <g id="Sobre" transform="translate(-16 -676)">
    <rect id="Ret창ngulo_13" data-name="Ret창ngulo 13" width="46" height="46" rx="5" transform="translate(16 676)" fill="#132c48"/>
    <g id="Grupo_544" data-name="Grupo 544" transform="translate(26.97 687)">
      <g id="Grupo_544-2" data-name="Grupo 544" clip-path="url(#clip-path)">
        <path id="Caminho_1041" data-name="Caminho 1041" d="M24.059,11.691A12.1,12.1,0,0,1,14.4,23.758a11.875,11.875,0,0,1-8.472-1.424.4.4,0,0,0-.4-.021q-1.975.8-3.957,1.581a1.084,1.084,0,0,1-1.552-.823,1.41,1.41,0,0,1,.109-.689c.508-1.306,1.033-2.607,1.559-3.906a.4.4,0,0,0-.025-.4A11.878,11.878,0,0,1,0,11.9,12.031,12.031,0,0,1,23.675,9.006a11.5,11.5,0,0,1,.384,2.685M3.085,20.912c.125-.043.2-.064.264-.091.656-.26,1.315-.515,1.967-.785a1.281,1.281,0,0,1,1.281.127,9.72,9.72,0,0,0,7.45,1.437,9.809,9.809,0,1,0-11.8-10.454,9.668,9.668,0,0,0,1.587,6.234,1.319,1.319,0,0,1,.129,1.347c-.3.7-.572,1.416-.88,2.184" transform="translate(0.001 0)" fill="#fff"/>
        <path id="Caminho_1042" data-name="Caminho 1042" d="M130.266,129.991c-.391,0-.749.01-1.106,0a1.105,1.105,0,0,1-1.068-.955,1,1,0,0,1,.811-1.182,19.245,19.245,0,0,1,2.754,0,.947.947,0,0,1,.794.914,2.7,2.7,0,0,1,.016.306q0,4.178,0,8.357a2.014,2.014,0,0,1-.043.482,1.086,1.086,0,0,1-1.115.8,1.07,1.07,0,0,1-1.02-.936,3.33,3.33,0,0,1-.02-.408q0-3.514,0-7.028Z" transform="translate(-119.339 -119.076)" fill="#fff"/>
        <path id="Caminho_1043" data-name="Caminho 1043" d="M161.188,79.836a1.086,1.086,0,0,1,1.1,1.1,1.1,1.1,0,1,1-2.192-.02,1.085,1.085,0,0,1,1.093-1.081" transform="translate(-149.164 -74.385)" fill="#fff"/>
      </g>
    </g>
  </g>
</svg>
