<svg width="181" height="30" viewBox="0 0 181 30" fill="none" xmlns="http://www.w3.org/2000/svg">
<path fill-rule="evenodd" clip-rule="evenodd" d="M66.8467 19.077H57.5122L62.4783 7.10804L66.8467 19.077V19.077ZM106.798 15.8302L107.483 13.6354H98.7945V6.19717L99.0448 6.1602C100.98 5.87786 103.038 5.71989 104.998 5.71989C105.728 5.71989 106.517 5.78039 107.212 6.00223C107.622 6.13331 107.997 6.32489 108.32 6.57698L109.147 3.92841H107.872H101.888H94.7876C95.0517 4.23427 95.2672 4.57711 95.4166 4.95355C95.7085 5.68292 95.7502 6.68454 95.7502 7.45423C95.7502 12.0691 95.7502 16.6839 95.7502 21.2987C95.7502 22.0684 95.7085 23.0734 95.4166 23.7994C95.2637 24.1759 95.0517 24.5153 94.7876 24.8246H107.872L109.123 21.534C108.355 21.9407 107.549 22.2768 106.701 22.5188C105.596 22.8314 104.452 22.9726 103.298 22.9726C102.676 22.9726 102.051 22.9322 101.432 22.8751C100.633 22.8045 99.8371 22.7104 99.0448 22.5928L98.7945 22.5558V15.1109H104.042C104.647 15.1109 105.3 15.1613 105.877 15.3462C106.218 15.4537 106.527 15.6117 106.798 15.8235V15.8302ZM76.9422 24.8313H90.023L91.2776 21.5475C90.5131 21.9542 89.7068 22.2869 88.8588 22.5256C87.7537 22.8348 86.6104 22.9793 85.4566 22.9793C84.8345 22.9793 84.209 22.939 83.5869 22.8818C82.7772 22.8079 81.9709 22.7138 81.1647 22.5995L80.911 22.5625V7.42062C80.911 6.65765 80.9492 5.65603 81.2342 4.93675C81.3801 4.56366 81.5921 4.23091 81.8597 3.93177H76.9492C77.2098 4.23091 77.4218 4.56366 77.5713 4.93339C77.8632 5.65603 77.9049 6.65765 77.9049 7.42062V21.3021C77.9049 22.0718 77.8632 23.0768 77.5713 23.8028C77.4184 24.1792 77.2064 24.5187 76.9388 24.8279L76.9422 24.8313ZM52.5947 6.5837L53.4184 3.93513H37.5608L36.7303 6.46942C37.1369 6.25767 37.5817 6.10978 38.0335 6.00559C39.0448 5.77031 40.1881 5.72325 41.2307 5.72325H43.3819V21.3055C43.3819 22.0752 43.3436 23.0768 43.0587 23.8028C42.9092 24.1792 42.6938 24.5221 42.4262 24.8279H47.3575C47.0934 24.5221 46.878 24.1792 46.725 23.8028C46.4331 23.0734 46.3914 22.0718 46.3914 21.3021V5.71989H49.2759C50.0057 5.71989 50.7946 5.78039 51.4896 6.00223C51.8997 6.13331 52.275 6.32489 52.5982 6.57698L52.5947 6.5837ZM33.116 3.93513H28.2124C28.4766 4.23427 28.6886 4.56702 28.838 4.94011C29.123 5.65939 29.1612 6.66773 29.1612 7.43071V21.3122C29.1612 22.0819 29.123 23.0768 28.838 23.8061C28.6886 24.186 28.4731 24.5254 28.2055 24.8313H33.123C32.8554 24.5254 32.6364 24.186 32.4905 23.8061C32.2055 23.0768 32.1673 22.0819 32.1673 21.3122V7.43071C32.1673 6.66773 32.2055 5.66275 32.4905 4.94011C32.6364 4.56702 32.8519 4.23427 33.116 3.93513V3.93513ZM13.3315 29.4999L25.6929 0.409302H20.8484C21.0048 0.627775 21.1508 0.856332 21.2759 1.08825C21.5539 1.58234 21.7311 2.12348 21.7311 2.68815C21.7311 3.24946 21.6442 3.81077 21.5157 4.35863C21.3767 4.95355 21.1925 5.53503 20.9631 6.10642L12.8623 25.6447L5.60254 6.00559C5.46353 5.58881 5.35233 5.15858 5.28282 4.72836C5.23069 4.46619 5.19246 4.20402 5.16466 3.93849L0.535645 3.92505C0.862317 4.4393 1.16466 4.967 1.44616 5.50814C2.04737 6.66101 2.51306 7.8811 2.96831 9.09111L8.25415 22.9759C8.85884 24.5859 9.66162 26.4278 10.8085 27.7487C11.5 28.5453 12.3306 29.147 13.3315 29.4999ZM56.9005 20.5593H64.977C66.0404 20.5761 67.3019 20.7206 67.7641 21.5844L68.348 23.1843C68.4453 23.4768 68.5217 23.7759 68.5704 24.0717C68.6191 24.317 68.6503 24.5658 68.6747 24.8145L72.6086 24.8279C72.2959 24.3574 72.0074 23.8734 71.7502 23.3759C71.3263 22.5625 70.9857 21.6785 70.666 20.8248L66.0126 8.33485C65.5782 7.1719 64.9805 5.80728 64.1395 4.84263C63.5695 4.19058 62.878 3.70993 62.0265 3.45449L52.9457 24.8279H57.1994C56.9909 24.5658 56.7963 24.2935 56.6503 24.0213C56.4661 23.6986 56.3515 23.3457 56.3515 22.9759C56.3515 22.5894 56.4105 22.2029 56.5009 21.8264C56.5982 21.413 56.7268 21.0063 56.8866 20.6063L56.904 20.5626L56.9005 20.5593Z" fill="white"/>
<path fill-rule="evenodd" clip-rule="evenodd" d="M123.409 13.1681C125.47 11.5884 128.042 10.6574 130.447 11.5077C131.385 11.8405 132.132 12.4993 132.435 13.5446C133.196 16.1629 129.689 19.4803 126.523 19.9341C124.369 20.2433 123.427 19.561 123.079 18.9291C123.236 18.8383 123.601 18.7442 123.851 18.761C124.084 19.0703 125.185 19.2047 126.457 18.9459C129.161 18.398 131.448 15.6554 131.142 13.8034C131.024 13.0975 130.582 12.6438 129.995 12.3984C127.927 11.5279 125.488 13.0303 123.764 14.6201C122.749 15.5545 122.047 16.4721 121.474 17.4132C121.23 17.8401 120.994 18.267 120.761 18.6905C120.212 19.7526 119.715 20.8617 119.024 22.0751C118.172 23.5708 116.379 25.8228 114.061 25.7623L114.436 25.2346C115.781 24.9859 117.06 23.5574 118.016 21.6684C119.163 19.4064 119.621 17.4905 121.029 15.578C119.76 16.3612 117.727 16.7544 116.233 16.5595C116.32 16.3646 116.407 16.1696 116.494 15.978C117.908 16.052 119.142 15.5848 120.264 14.7915C121.279 14.0756 122.11 13.0706 122.516 11.6455C122.989 11.6052 123.594 11.4338 123.941 11.6455C123.875 12.1799 123.684 12.6976 123.406 13.1816L123.409 13.1681ZM167.656 16.8855C168.323 17.7729 167.663 18.9425 166.989 19.6215C165.575 21.0466 163.142 22.2936 161.606 22.912C162.311 24.401 164.528 23.7355 165.668 23.1574C170.005 20.9727 174.346 16.5124 180.143 18.1291C180.188 18.1426 180.254 18.1628 180.337 18.1964C180.417 18.2266 180.48 18.2501 180.528 18.2636L179.472 18.5997C174.478 17.4468 169.668 22.2163 165.849 24.0783C164.98 24.5052 164.139 24.7338 163.333 24.7573C162.04 24.7976 160.949 24.5724 160.337 23.4229C152.08 27.0294 155.521 22.7238 157.164 18.6098C157.689 17.5174 156.869 18.1157 156.23 18.6568C155.517 19.2618 154.673 20.0047 153.832 20.7576C152.692 21.7861 151.656 22.8482 150.544 23.8834C149.915 24.4716 149.47 24.764 149.213 24.764C149.06 24.764 148.925 24.7304 148.81 24.6565C148.699 24.5825 148.633 24.4918 148.615 24.3809C148.546 23.9439 150.409 19.5274 150.593 19.0602C151.051 17.9678 151.343 17.383 149.974 18.4989C149.3 19.0501 144.977 22.9154 143.128 24.3103C142.621 24.6901 141.734 25.1136 141.578 24.1657C141.522 23.2078 142.669 21.339 143.041 20.5895C142.137 21.6415 138.019 24.8346 136.667 24.8346C135.611 24.8346 136.282 22.9053 136.883 21.4903C137.345 20.4013 137.828 19.3526 138.204 18.2266C138.537 17.225 138.169 17.4804 136.188 17.2889C134.68 20.6332 130.204 24.6598 126.186 24.6598C125.279 24.6598 124.546 24.4884 123.986 24.0414L124.598 23.5641C128.24 24.7506 134.03 20.0954 135.298 17.0301C134.86 16.8318 134.614 16.378 134.652 15.9814C134.718 15.2386 135.74 15.0268 136.205 15.5881C136.4 15.82 136.483 16.1562 136.389 16.5259C137.185 16.5259 138.367 16.3746 139.124 16.6469C139.736 16.9326 139.771 17.5073 139.639 18.0552C139.368 19.114 138.728 20.2635 138.287 21.2684C137.825 22.3238 137.429 23.3591 137.734 23.2381C140.598 22.0583 143.475 19.1745 144.959 16.4788H146.242L143.656 22.3306C145.422 20.7744 147.927 18.8988 149.23 17.867C150.53 16.8317 151.437 16.3175 151.941 16.3175C152.918 16.3175 152.528 17.188 152.316 17.7594L150.666 22.2028C152.515 20.3206 154.429 18.8451 155.684 17.8334C156.945 16.8217 157.745 16.3814 158.245 16.3646C158.833 16.3444 158.961 16.8788 158.871 17.3763C158.791 17.8166 158.485 18.4518 158.294 18.8585C156.921 21.776 154.516 25.043 160.025 22.4953C159.712 19.9341 162.054 17.067 164.709 16.3914C165.616 16.1595 167.051 16.0721 167.663 16.8855H167.656ZM166.534 17.2788C166.096 16.8654 165.258 17.0872 164.758 17.2754C162.874 17.9779 161.512 20.166 161.477 21.9373C162.495 21.5441 164.581 20.408 165.856 19.2518C166.294 18.8552 167.135 17.8435 166.534 17.2821V17.2788ZM147.236 13.4135C147.024 13.3059 146.742 13.2858 146.475 13.3597C146.256 13.4202 146.051 13.5446 145.908 13.7395C145.661 14.0756 145.668 14.4622 146.012 14.6504C146.224 14.7647 146.527 14.7949 146.808 14.731C147.079 14.6705 147.329 14.526 147.465 14.2941C147.674 13.9378 147.555 13.5748 147.239 13.4135H147.236Z" fill="white"/>
</svg>
